<svg enable-background="new 0 0 500 500" viewBox="0 0 500 500" xmlns="http://www.w3.org/2000/svg"><g fill="#bfdde8" opacity=".85"><path d="m478.85 296.7c.43-7.37.24-14.78-.59-22.11-3.9-34.45-21.58-66.94-47.59-89.86-9.28-8.18-19.84-15.5-25.88-26.3-10.17-18.18-9.4-39.07-22.02-57.02-12.64-17.97-31.05-31.98-51.82-39.18-61.93-21.46-148.62 13.48-140.82 88.09.03.27.06.66.09 1.15 1.04 15.5-11.13 28.53-26.61 28.9-57.14 1.36-106.32 45.41-116.84 101.21-6.77 35.89 4.31 75.22 30.56 100.6 19.59 18.95 45.89 29.36 72.19 36.51 52.74 14.34 108.24 17.35 162.62 11.86 50.9-5.13 104.59-19.77 137.51-58.93 17.56-20.87 27.62-47.66 29.2-74.92z" opacity=".41"/><ellipse cx="217.16" cy="43.61" opacity=".31" rx="13.29" ry="13.29" transform="matrix(.9239 -.3827 .3827 .9239 -.1581 86.4225)"/><circle cx="396.78" cy="35.5" opacity=".31" r="6.86"/><ellipse cx="154.66" cy="73.37" opacity=".31" rx="9.19" ry="9.19" transform="matrix(.7071 -.7071 .7071 .7071 -6.58 130.8493)"/></g><g fill="#bfdde8" opacity=".85"><path d="m22.74 81.95c-5.97-11.62-1.38-25.88 10.24-31.84 11.62-5.97 33.95-5.53 39.92 6.09s-11.92 21.6-19.22 32.43c-10.17 15.12-24.98 4.94-30.94-6.68z" opacity=".47"/><path d="m77.55 443.18c-9.65 6.23-22.53 3.46-28.77-6.2-6.23-9.65-7.79-29.24 1.86-35.48 9.65-6.23 19.94 8.56 30.06 14 14.12 7.59 6.5 21.44-3.15 27.68z" opacity=".47"/><path d="m467.69 128.46c8.24 17.9 10.5 38.53 6.54 57.82-4.65 22.68-18.77 40.1-13.87 64.29 2.98 14.74 3.73 28.39 5.24 42.97 3.11 29.94-16.33 56.32-40.45 70.57-19.59 11.57-42.55 15.91-65.07 15.6-20.27-.28-40.5-4.02-60.14-9.05-18.93-4.85-37.43-11.24-57.27-9.22-16.5 1.68-31.36 8.81-46.73 14.13-36.69 12.7-81.12 14.49-114.67-4.84-21.53-12.41-36.6-32.55-43.28-54.22-5.34-17.31-6.02-33.5-2.02-51.18 4.11-18.15 11.05-36.44 8.9-55.35-1.5-13.18-7.53-25.89-6.42-39.11.73-8.78 4.6-17.02 9.33-24.45 17.26-27.15 46.17-45.33 76.74-55.34 28.77-9.43 58.45-16.25 88.4-13.98 61.94 4.69 74.56-5.15 137.86-18.69 40.86-8.74 86.57 22.42 110.48 58.51 2.45 3.68 4.59 7.54 6.43 11.54z" opacity=".47"/><path d="m425.08 156.36c1.27 14.29-3.55 29.02.48 43.17 4.82 16.95 18.79 29.64 24.48 46.28 8.41 24.58 8.01 52.13-2.21 76.09-4.92 11.55-12.11 22.27-21.93 29.69-15.14 11.44-34.98 13.95-53.63 12.5-27.76-2.16-57.06-14.18-84.97-10.9-15.4 1.81-20.11 18.48-28.06 29.48-9 12.44-21.25 22.21-34.8 28.71-24.95 11.98-54.9 13.11-80.4 2.25-27.23-11.6-50.96-39.91-49.4-71.94.72-14.82 6.65-29.53 3.91-44.09-3.45-18.27-17.21-34.92-27.19-49.8-11.02-16.44-17.69-36.04-18.99-56.04-.01-.23-.03-.45-.04-.68-2.05-34.5 19.72-65.97 52.55-76.77 0 0 69.86-22.98 69.86-22.98 70.87-23.32 141.7-22.54 206.88 11.67 14.1 7.4 37.07 29.46 41.8 44.67.89 2.87 1.4 5.77 1.66 8.69z" opacity=".81"/></g><circle cx="467.65" cy="388.58" fill="#2f4770" opacity=".58" r="4.5"/><circle cx="319.07" cy="33.39" fill="#3d85fd" opacity=".58" r="4.75"/><circle cx="105.51" cy="441.08" fill="#2f4770" opacity=".58" r="4.5"/><circle cx="381.24" cy="442" fill="#ffb44f" opacity=".58" r="3.5"/><circle cx="98.74" cy="64.18" fill="#ffb44f" opacity=".58" r="3.5"/><circle cx="70.81" cy="102.77" fill="#3d85fd" opacity=".58" r="1.5"/><path d="m136.47 30.76c-.24 1.14-1.37 1.87-2.52 1.63-1.14-.24-1.87-1.37-1.63-2.52.24-1.14 1.37-1.87 2.52-1.63 1.14.25 1.87 1.37 1.63 2.52z" fill="#3d85fd" opacity=".58"/><path d="m478.2 225.92c-.24 1.14-1.37 1.87-2.52 1.63-1.14-.24-1.87-1.37-1.63-2.52.24-1.14 1.37-1.87 2.52-1.63 1.15.25 1.88 1.37 1.63 2.52z" fill="#ffb44f" opacity=".58"/><path d="m457.75 96.88c-.21.97-1.16 1.59-2.14 1.39-.97-.21-1.59-1.16-1.39-2.14s1.16-1.59 2.14-1.39c.98.21 1.6 1.17 1.39 2.14z" fill="#2f4770" opacity=".58"/><path d="m438.55 49.4c0 3.79-3.07 6.86-6.86 6.86s-6.86-3.07-6.86-6.86 3.07-6.86 6.86-6.86 6.86 3.07 6.86 6.86z" fill="#ffb44f" opacity=".58"/><path d="m30.12 260.55c0 3.03-2.46 5.49-5.49 5.49s-5.49-2.46-5.49-5.49 2.46-5.49 5.49-5.49 5.49 2.46 5.49 5.49z" fill="#bfdde8" opacity=".47"/><g opacity=".86"><path d="m252.33 372.91c-68.82 0-124.61-55.79-124.61-124.61 0-68.82 55.79-124.61 124.61-124.61 68.82 0 124.61 55.79 124.61 124.61 0 68.82-55.79 124.61-124.61 124.61z" fill="#f2f9ff" opacity=".44"/><path d="m252.33 372.91c-68.82 0-124.61-55.79-124.61-124.61 0-68.82 55.79-124.61 124.61-124.61 68.82 0 124.61 55.79 124.61 124.61 0 68.82-55.79 124.61-124.61 124.61z" fill="#f2f9ff" opacity=".86"/><g style="fill:none;stroke:#f2f9ff;stroke-width:3;stroke-linecap:round;stroke-linejoin:round;stroke-miterlimit:10"><path d="m134.4 180.84s12.85-29.37 49.56-49.56"/><path d="m292.25 376.32s55.07-14.68 75.26-59.65"/><path d="m323.91 137.25s29.37 12.85 49.56 49.56" opacity=".86"/><path d="m128.43 295.1s14.68 55.07 59.65 75.26" opacity=".86"/></g></g><path d="m239.39 358.5 3.25 1.02c4.45 1.39 9.23-1.12 10.62-5.57l74.19-237.65c1.39-4.45-1.12-9.23-5.57-10.62l-3.25-1.02c-4.45-1.39-9.23 1.12-10.62 5.57l-74.19 237.65c-1.39 4.45 1.12 9.23 5.57 10.62z" fill="#233863"/><path d="m245.16 361.4c-1 0-1.99-.15-2.97-.46l-3.25-1.01c-2.54-.79-4.62-2.53-5.86-4.9s-1.49-5.07-.7-7.6l74.19-237.65c.79-2.54 2.53-4.62 4.9-5.86s5.07-1.49 7.6-.7l3.25 1.02c5.25 1.64 8.19 7.25 6.55 12.5l-74.17 237.65c-.79 2.54-2.53 4.62-4.9 5.86-1.46.76-3.04 1.15-4.64 1.15z" fill="#233863"/><path d="m367.13 414.05-109.89-34.3c-11.85-3.7-18.46-16.31-14.76-28.16l73.64-235.9c3.7-11.85 16.31-18.46 28.16-14.76l109.89 34.3c11.85 3.7 18.46 16.31 14.76 28.16l-73.64 235.9c-3.7 11.86-16.31 18.46-28.16 14.76z" fill="#2f4770"/><path d="m373.82 416.58c-2.36 0-4.76-.35-7.13-1.09l-109.89-34.3c-6.11-1.91-11.12-6.08-14.09-11.76-2.97-5.67-3.56-12.17-1.65-18.28l73.64-235.9c3.94-12.62 17.41-19.69 30.04-15.74l109.89 34.3c12.62 3.94 19.68 17.41 15.74 30.04l-73.64 235.9c-3.21 10.24-12.7 16.83-22.91 16.83zm-6.24-3.96c5.35 1.67 11.03 1.16 15.99-1.45 4.96-2.6 8.62-6.98 10.29-12.33l73.64-235.9c3.45-11.04-2.73-22.83-13.78-26.28l-109.89-34.3c-11.04-3.45-22.83 2.73-26.28 13.78l-73.64 235.9c-1.67 5.35-1.16 11.03 1.45 15.99 2.6 4.96 6.98 8.62 12.33 10.29z" fill="#233863"/><path d="m327.51 122.91h98.47v134.38h-98.47z" fill="#fff" transform="matrix(.298 -.9546 .9546 .298 83.0189 493.083)"/><path d="m426.21 258.62c-.15 0-.3-.02-.45-.07l-128.27-40.04c-.38-.12-.7-.38-.88-.74-.19-.35-.22-.76-.1-1.14l29.34-94c.12-.38.38-.7.74-.88.35-.18.76-.22 1.14-.1l128.27 40.04c.38.12.7.38.88.74.19.35.22.76.1 1.14l-29.34 94c-.2.64-.79 1.05-1.43 1.05zm-126.39-42.53 125.41 39.15 28.45-91.14-125.41-39.15z" fill="#233863"/><path d="m440.09 145.57c-.1 0-.2-.02-.3-.05l-89.54-27.95c-.53-.16-.82-.73-.66-1.25.16-.53.73-.82 1.25-.66l89.54 27.95c.53.16.82.73.66 1.25-.13.43-.53.71-.95.71z" fill="#fff"/><path d="m350.17 148.21-19.97-6.23c-.62-.19-.97-.86-.78-1.48l1.15-3.7c.19-.62.86-.97 1.48-.78l19.97 6.23c.62.19.97.86.78 1.48l-1.15 3.7c-.2.63-.86.98-1.48.78z" fill="#ffb44f"/><path d="m350.52 149.27c-.22 0-.44-.03-.65-.1l-19.97-6.23c-1.15-.36-1.79-1.58-1.43-2.73l1.16-3.7c.17-.56.55-1.01 1.07-1.28s1.11-.32 1.66-.15l19.97 6.23c.56.17 1.01.55 1.28 1.07s.32 1.11.15 1.66l-1.15 3.7c-.17.56-.55 1.01-1.07 1.28-.33.16-.67.25-1.02.25zm-.06-2.01c.09.03.2-.02.23-.12l1.15-3.7c.03-.08-.04-.2-.12-.23l-19.97-6.23c-.08-.02-.2.04-.23.12l-1.16 3.7c-.03.1.02.2.12.23z" fill="#233863"/><path d="m379.85 157.48-19.97-6.23c-.62-.19-.97-.86-.78-1.48l1.15-3.7c.19-.62.86-.97 1.48-.78l19.97 6.23c.62.19.97.86.78 1.48l-1.15 3.7c-.2.62-.86.97-1.48.78z" fill="#ffb44f"/><path d="m380.2 158.53c-.22 0-.44-.03-.65-.1l-19.97-6.23c-1.15-.36-1.79-1.58-1.43-2.73l1.15-3.7c.36-1.15 1.58-1.79 2.73-1.43l19.97 6.23c.56.17 1.01.55 1.28 1.07s.32 1.11.15 1.66l-1.16 3.7c-.17.56-.55 1.01-1.07 1.28-.31.17-.65.25-1 .25zm-.06-2.01c.08.03.2-.04.23-.12l1.16-3.7c.03-.08-.04-.2-.12-.23l-19.97-6.23c-.08-.02-.2.04-.23.12l-1.15 3.7c-.03.1.02.2.12.23z" fill="#233863"/><path d="m411.75 167.44-19.97-6.23c-.62-.19-.97-.86-.78-1.48l1.15-3.7c.19-.62.86-.97 1.48-.78l19.97 6.23c.62.19.97.86.78 1.48l-1.15 3.7c-.19.62-.85.97-1.48.78z" fill="#ffb44f"/><path d="m412.11 168.49c-.21 0-.43-.03-.65-.1l-19.97-6.23c-1.15-.36-1.79-1.58-1.43-2.73l1.15-3.7c.17-.56.55-1.01 1.07-1.28s1.11-.32 1.66-.15l19.97 6.23c1.15.36 1.79 1.58 1.43 2.73l-1.16 3.7c-.28.93-1.15 1.53-2.07 1.53zm-.06-2.01c.09.03.2-.02.23-.12l1.16-3.7c.03-.1-.02-.2-.12-.23l-19.97-6.23c-.08-.03-.2.04-.23.12l-1.15 3.7c-.03.1.02.2.12.23z" fill="#233863"/><path d="m441.8 176.82-19.97-6.23c-.62-.19-.97-.86-.78-1.48l1.15-3.7c.19-.62.86-.97 1.48-.78l19.97 6.23c.62.19.97.86.78 1.48l-1.15 3.7c-.2.62-.86.97-1.48.78z" fill="#ffb44f"/><path d="m442.15 177.87c-.22 0-.44-.03-.65-.1l-19.97-6.23c-.56-.17-1.01-.55-1.28-1.07s-.32-1.11-.15-1.66l1.15-3.7c.36-1.15 1.58-1.79 2.73-1.43l19.97 6.23c1.15.36 1.79 1.58 1.43 2.73l-1.16 3.7c-.17.56-.55 1.01-1.07 1.28-.3.17-.65.25-1 .25zm-.05-2.01c.09.03.2-.02.23-.12l1.16-3.7c.03-.1-.02-.2-.12-.23l-19.97-6.23c-.1-.03-.2.02-.23.12l-1.15 3.7c-.03.08.04.2.12.23z" fill="#233863"/><path d="m344.51 189.26h24.2v130.72h-24.2z" fill="#233863" transform="matrix(.298 -.9546 .9546 .298 7.2873 519.1522)"/><path d="m415.39 287.15c-.15 0-.3-.02-.45-.07l-124.78-38.95c-.79-.25-1.23-1.09-.98-1.88l7.21-23.1c.12-.38.38-.7.74-.88.35-.19.76-.22 1.14-.1l124.78 38.95c.79.25 1.23 1.09.98 1.88l-7.21 23.1c-.12.38-.38.7-.74.88-.21.11-.45.17-.69.17zm-122.9-41.44 121.91 38.06 6.32-20.23-121.92-38.06z" fill="#233863"/><path d="m332.57 252.71c-.25 0-.5-.04-.74-.11l-22.14-6.91c-1.32-.41-2.05-1.82-1.64-3.13l1.93-6.18c.2-.64.63-1.16 1.23-1.47.59-.31 1.27-.37 1.91-.17l22.14 6.91c.64.2 1.16.63 1.47 1.23.31.59.37 1.27.17 1.91l-1.93 6.18c-.34 1.05-1.33 1.74-2.4 1.74zm-.44-1.07c.78.25 1.63-.19 1.88-.98l1.93-6.18c.12-.38.08-.79-.1-1.14-.19-.35-.5-.62-.88-.74l-22.14-6.91c-.38-.12-.79-.08-1.14.1-.36.19-.62.5-.74.88l-1.93 6.18c-.25.79.2 1.63.98 1.88z" fill="#fff"/><path d="m366.8 263.39c-.25 0-.5-.04-.75-.11l-22.14-6.91c-.64-.2-1.16-.63-1.47-1.23-.31-.59-.37-1.27-.17-1.91l1.93-6.18c.2-.64.63-1.16 1.23-1.47.59-.31 1.27-.37 1.91-.17l22.14 6.91c.64.2 1.16.63 1.47 1.23.31.59.37 1.27.17 1.91l-1.93 6.18c-.2.64-.63 1.16-1.23 1.47-.37.18-.76.28-1.16.28zm-.45-1.07c.38.12.79.08 1.14-.1.36-.19.62-.5.74-.88l1.93-6.18c.12-.38.08-.79-.1-1.14-.19-.36-.5-.62-.88-.74l-22.14-6.91c-.38-.12-.79-.08-1.14.1-.36.19-.62.5-.74.88l-1.93 6.18c-.12.38-.08.79.1 1.14.19.35.5.62.88.74z" fill="#fff"/><path d="m401.4 274.19c-.25 0-.5-.04-.75-.11l-22.14-6.91c-1.32-.41-2.05-1.82-1.64-3.13l1.93-6.18c.2-.64.63-1.16 1.23-1.47.59-.31 1.27-.37 1.91-.17l22.14 6.91c.64.2 1.16.63 1.47 1.23.31.59.37 1.27.17 1.91l-1.93 6.18c-.2.64-.63 1.16-1.23 1.47-.37.18-.76.27-1.16.27zm-.45-1.07c.38.12.79.08 1.14-.1.36-.19.62-.5.74-.88l1.93-6.18c.12-.38.08-.79-.1-1.14-.19-.36-.5-.62-.88-.74l-22.14-6.91c-.38-.12-.79-.08-1.14.1-.36.19-.62.5-.74.88l-1.93 6.18c-.25.79.2 1.63.99 1.88z" fill="#fff"/><path d="m305.18 294.71-15.88-4.96c-4.45-1.39-6.96-6.17-5.57-10.62l2.87-9.21c1.39-4.45 6.17-6.96 10.62-5.57l15.88 4.96c4.45 1.39 6.96 6.17 5.57 10.62l-2.87 9.21c-1.38 4.46-6.16 6.96-10.62 5.57z" fill="#5a6f8e"/><path d="m307.71 296.6c-1 0-1.99-.15-2.97-.46l-15.88-4.95c-5.25-1.64-8.19-7.25-6.55-12.5l2.87-9.21c1.64-5.25 7.25-8.19 12.5-6.55l15.88 4.96c5.25 1.64 8.19 7.25 6.55 12.5l-2.87 9.21c-.79 2.54-2.53 4.62-4.9 5.86-1.46.75-3.04 1.14-4.63 1.14zm-13-31.13c-2.97 0-5.74 1.92-6.67 4.9l-2.87 9.21c-1.15 3.67.91 7.6 4.58 8.75l15.88 4.96c1.77.55 3.66.38 5.32-.49s2.88-2.32 3.43-4.09l2.87-9.21c1.15-3.67-.91-7.6-4.59-8.75l-15.88-4.96c-.68-.22-1.38-.32-2.07-.32z" fill="#233863"/><path d="m348.57 308.26-15.88-4.96c-4.45-1.39-6.96-6.17-5.57-10.62l2.87-9.21c1.39-4.45 6.17-6.96 10.62-5.57l15.88 4.96c4.45 1.39 6.96 6.17 5.57 10.62l-2.87 9.21c-1.38 4.45-6.17 6.96-10.62 5.57z" fill="#5a6f8e"/><path d="m351.09 310.14c-.99 0-1.99-.15-2.97-.45l-15.88-4.96c-5.25-1.64-8.19-7.25-6.55-12.5l2.87-9.21c.79-2.54 2.53-4.62 4.9-5.86s5.07-1.49 7.6-.7l15.88 4.96c5.25 1.64 8.19 7.25 6.55 12.5l-2.88 9.21c-.79 2.54-2.53 4.62-4.9 5.86-1.44.77-3.02 1.15-4.62 1.15zm-2.07-3.31c1.77.55 3.66.38 5.32-.49s2.88-2.32 3.43-4.09l2.88-9.21c.55-1.77.38-3.66-.49-5.32s-2.32-2.88-4.09-3.43l-15.88-4.96c-1.77-.55-3.66-.38-5.32.49s-2.88 2.32-3.43 4.09l-2.87 9.21c-.55 1.77-.38 3.66.49 5.32s2.32 2.88 4.09 3.43z" fill="#233863"/><path d="m391.31 321.6-15.88-4.96c-4.45-1.39-6.96-6.17-5.57-10.62l2.87-9.21c1.39-4.45 6.17-6.96 10.62-5.57l15.88 4.96c4.45 1.39 6.96 6.17 5.57 10.62l-2.87 9.21c-1.39 4.45-6.17 6.96-10.62 5.57z" fill="#5a6f8e"/><path d="m393.83 323.48c-.98 0-1.98-.15-2.97-.46l-15.88-4.96c-5.25-1.64-8.19-7.25-6.55-12.5l2.87-9.21c.79-2.54 2.53-4.62 4.9-5.86s5.07-1.49 7.6-.7l15.88 4.96c5.25 1.64 8.19 7.25 6.55 12.5l-2.87 9.21c-1.33 4.28-5.28 7.02-9.53 7.02zm-12.99-31.12c-1.12 0-2.22.27-3.25.81-1.66.87-2.88 2.32-3.43 4.09l-2.87 9.21c-1.15 3.67.91 7.6 4.59 8.75l15.88 4.96c3.67 1.15 7.6-.91 8.75-4.58l2.87-9.21c1.15-3.67-.91-7.6-4.58-8.75l-15.88-4.96c-.69-.22-1.38-.32-2.08-.32z" fill="#233863"/><path d="m294.58 328.69-15.88-4.96c-4.45-1.39-6.96-6.17-5.57-10.62l2.87-9.21c1.39-4.45 6.17-6.96 10.62-5.57l15.88 4.96c4.45 1.39 6.96 6.17 5.57 10.62l-2.87 9.21c-1.39 4.45-6.17 6.96-10.62 5.57z" fill="#5a6f8e"/><path d="m297.1 330.57c-.98 0-1.98-.15-2.97-.45l-15.88-4.96c-2.54-.79-4.62-2.53-5.86-4.9s-1.49-5.07-.7-7.6l2.88-9.21c1.64-5.25 7.24-8.19 12.5-6.55l15.88 4.96c2.54.79 4.62 2.53 5.86 4.9s1.49 5.07.7 7.6l-2.87 9.21c-1.34 4.26-5.29 7-9.54 7zm-2.07-3.32c3.67 1.14 7.6-.91 8.75-4.59l2.87-9.21c.55-1.77.38-3.66-.49-5.32s-2.32-2.88-4.09-3.43l-15.88-4.96c-1.77-.55-3.66-.38-5.32.49s-2.88 2.32-3.43 4.09l-2.88 9.21c-.55 1.77-.38 3.66.49 5.32s2.32 2.88 4.09 3.43z" fill="#233863"/><path d="m337.97 342.23-15.88-4.96c-4.45-1.39-6.96-6.17-5.57-10.62l2.87-9.21c1.39-4.45 6.17-6.96 10.62-5.57l15.88 4.96c4.45 1.39 6.96 6.17 5.57 10.62l-2.87 9.21c-1.39 4.45-6.17 6.96-10.62 5.57z" fill="#5a6f8e"/><path d="m340.49 344.12c-.98 0-1.98-.15-2.97-.45l-15.88-4.96c-2.54-.79-4.62-2.53-5.86-4.9s-1.49-5.07-.7-7.6l2.87-9.21c1.64-5.25 7.25-8.19 12.5-6.55l15.88 4.96c2.54.79 4.62 2.53 5.86 4.9s1.49 5.07.7 7.6l-2.87 9.21c-1.33 4.26-5.28 7-9.53 7zm-2.08-3.32c3.67 1.15 7.6-.91 8.75-4.58l2.87-9.21c.55-1.77.38-3.66-.49-5.32s-2.32-2.88-4.09-3.43l-15.88-4.96c-3.67-1.14-7.6.91-8.75 4.58l-2.87 9.21c-.55 1.77-.38 3.66.49 5.32s2.32 2.88 4.09 3.43z" fill="#233863"/><path d="m380.7 355.57-15.88-4.96c-4.45-1.39-6.96-6.17-5.57-10.62l2.87-9.21c1.39-4.45 6.17-6.96 10.62-5.57l15.88 4.96c4.45 1.39 6.96 6.17 5.57 10.62l-2.87 9.21c-1.38 4.45-6.16 6.96-10.62 5.57z" fill="#5a6f8e"/><path d="m383.22 357.46c-.98 0-1.98-.15-2.97-.45l-15.88-4.96c-5.25-1.64-8.19-7.25-6.55-12.5l2.88-9.21c1.64-5.25 7.24-8.19 12.5-6.55l15.88 4.96c2.54.79 4.62 2.53 5.86 4.9s1.49 5.07.7 7.6l-2.87 9.21c-1.34 4.26-5.3 7-9.55 7zm-2.07-3.32c3.67 1.15 7.6-.91 8.75-4.58l2.87-9.21c.55-1.77.38-3.66-.49-5.32s-2.32-2.88-4.09-3.43l-15.88-4.96c-1.77-.55-3.66-.38-5.32.49s-2.88 2.32-3.43 4.09l-2.88 9.21c-1.15 3.67.91 7.6 4.58 8.75z" fill="#233863"/><path d="m283.97 362.66-15.88-4.96c-4.45-1.39-6.96-6.17-5.57-10.62l2.87-9.21c1.39-4.45 6.17-6.96 10.62-5.57l15.88 4.96c4.45 1.39 6.96 6.17 5.57 10.62l-2.87 9.21c-1.38 4.45-6.16 6.96-10.62 5.57z" fill="#3aaed5"/><path d="m286.49 364.55c-1 0-1.99-.15-2.97-.46l-15.88-4.96c-2.54-.79-4.62-2.53-5.86-4.9s-1.49-5.07-.7-7.6l2.87-9.21c.79-2.54 2.53-4.62 4.9-5.86s5.07-1.49 7.6-.7l15.88 4.96c5.25 1.64 8.19 7.25 6.55 12.5l-2.87 9.21c-.79 2.54-2.53 4.62-4.9 5.86-1.44.77-3.02 1.16-4.62 1.16zm-2.07-3.32c1.77.55 3.66.38 5.32-.49s2.88-2.32 3.43-4.09l2.87-9.21c.55-1.77.38-3.66-.49-5.32s-2.32-2.88-4.09-3.43l-15.88-4.96c-1.77-.55-3.66-.38-5.32.49s-2.88 2.32-3.43 4.09l-2.87 9.21c-.55 1.77-.38 3.66.49 5.32s2.32 2.88 4.09 3.43z" fill="#233863"/><path d="m327.36 376.2-15.88-4.96c-4.45-1.39-6.96-6.17-5.57-10.62l2.87-9.21c1.39-4.45 6.17-6.96 10.62-5.57l15.88 4.96c4.45 1.39 6.96 6.17 5.57 10.62l-2.87 9.21c-1.38 4.46-6.17 6.96-10.62 5.57z" fill="#ffb44f"/><path d="m329.88 378.09c-.99 0-1.99-.15-2.97-.46l-15.88-4.96c-2.54-.79-4.62-2.53-5.86-4.9s-1.49-5.07-.7-7.6l2.88-9.21c.79-2.54 2.53-4.62 4.9-5.86s5.07-1.49 7.6-.7l15.88 4.96c5.25 1.64 8.19 7.25 6.55 12.5l-2.87 9.21c-.79 2.54-2.53 4.62-4.9 5.86-1.45.77-3.03 1.16-4.63 1.16zm-12.98-31.13c-1.12 0-2.22.27-3.25.81-1.66.87-2.88 2.32-3.43 4.09l-2.88 9.21c-.55 1.77-.38 3.66.49 5.32s2.32 2.88 4.09 3.43l15.88 4.96c1.77.55 3.66.38 5.32-.49s2.88-2.32 3.43-4.09l2.87-9.21c1.15-3.67-.91-7.6-4.58-8.75l-15.88-4.96c-.67-.21-1.37-.32-2.06-.32z" fill="#233863"/><path d="m370.1 389.54-15.88-4.96c-4.45-1.39-6.96-6.17-5.57-10.62l2.87-9.21c1.39-4.45 6.17-6.96 10.62-5.57l15.88 4.96c4.45 1.39 6.96 6.17 5.57 10.62l-2.87 9.21c-1.39 4.46-6.17 6.96-10.62 5.57z" fill="#3d85fd"/><path d="m372.62 391.43c-1 0-1.99-.15-2.97-.46l-15.88-4.96c-2.54-.79-4.62-2.53-5.86-4.9s-1.49-5.07-.7-7.6l2.87-9.21c.79-2.54 2.53-4.62 4.9-5.86s5.07-1.49 7.6-.7l15.88 4.96c2.54.79 4.62 2.53 5.86 4.9s1.49 5.07.7 7.6l-2.87 9.21c-.79 2.54-2.53 4.62-4.9 5.86-1.45.77-3.04 1.16-4.63 1.16zm-2.08-3.32c1.77.55 3.66.38 5.32-.49s2.88-2.32 3.43-4.09l2.87-9.21c.55-1.77.38-3.66-.49-5.32s-2.32-2.88-4.09-3.43l-15.88-4.96c-1.77-.55-3.66-.38-5.32.49s-2.88 2.32-3.43 4.09l-2.87 9.21c-.55 1.77-.38 3.66.49 5.32s2.32 2.88 4.09 3.43z" fill="#233863"/><path d="m365.39 419.26-109.68-34.24c-3.54-1.1-5.53-4.9-4.42-8.44 1.1-3.54 4.9-5.53 8.44-4.42l109.68 34.24c3.54 1.1 5.53 4.9 4.42 8.44-1.1 3.54-4.9 5.53-8.44 4.42z" fill="#233863"/><path d="m367.4 421.07c-.81 0-1.63-.12-2.45-.38l-109.68-34.24c-4.33-1.35-6.76-5.98-5.41-10.32 1.35-4.33 5.98-6.76 10.32-5.41l109.68 34.24c2.09.65 3.81 2.09 4.83 4.04s1.23 4.18.57 6.27c-1.1 3.54-4.36 5.8-7.86 5.8zm-1.56-3.24c2.75.86 5.7-.68 6.56-3.44.41-1.33.28-2.74-.37-3.99-.65-1.24-1.74-2.16-3.07-2.57l-109.68-34.24c-2.75-.86-5.7.68-6.56 3.44s.68 5.7 3.44 6.56z" fill="#233863"/><path d="m363.64 366.62c0 1.32-1.07 2.38-2.38 2.38-1.32 0-2.38-1.07-2.38-2.38 0-1.32 1.07-2.38 2.38-2.38 1.32 0 2.38 1.06 2.38 2.38z" fill="#fff"/><path d="m320.91 353.57c0 1.32-1.07 2.38-2.38 2.38-1.32 0-2.38-1.07-2.38-2.38 0-1.32 1.07-2.38 2.38-2.38s2.38 1.06 2.38 2.38z" fill="#fff"/><path d="m276.11 339.26c0 1.32-1.07 2.38-2.38 2.38-1.32 0-2.38-1.07-2.38-2.38 0-1.32 1.07-2.38 2.38-2.38 1.31-.01 2.38 1.06 2.38 2.38z" fill="#fff"/><path d="m375.11 384c0 .68-.55 1.24-1.24 1.24-.68 0-1.24-.55-1.24-1.24 0-.68.55-1.24 1.24-1.24.68.01 1.24.56 1.24 1.24z" fill="#fff"/><path d="m382.48 296.69c0 .88-.71 1.59-1.59 1.59s-1.59-.71-1.59-1.59.71-1.59 1.59-1.59 1.59.71 1.59 1.59z" fill="#233863"/><path d="m371.07 332.37c0 .88-.71 1.59-1.59 1.59s-1.59-.71-1.59-1.59.71-1.59 1.59-1.59 1.59.71 1.59 1.59z" fill="#233863"/><path d="m421.79 239.62c0 2.3-1.87 4.17-4.17 4.17s-4.17-1.87-4.17-4.17 1.87-4.17 4.17-4.17 4.17 1.87 4.17 4.17z" fill="#2f4770"/><path d="m417.62 245.3c-3.13 0-5.67-2.54-5.67-5.67s2.54-5.67 5.67-5.67 5.67 2.54 5.67 5.67c0 3.12-2.54 5.67-5.67 5.67zm0-8.35c-1.47 0-2.67 1.2-2.67 2.67s1.2 2.67 2.67 2.67 2.67-1.2 2.67-2.67-1.2-2.67-2.67-2.67z" fill="#233863"/><circle cx="181.75" cy="373" fill="#233863" r="50.25"/><ellipse cx="176.91" cy="370.31" fill="#233863" rx="50.25" ry="50.25" transform="matrix(.2298 -.9732 .9732 .2298 -224.1351 457.4082)"/><ellipse cx="176.91" cy="370.31" fill="#ffb44f" rx="50.25" ry="50.25" transform="matrix(.2298 -.9732 .9732 .2298 -224.1351 457.4082)"/><path d="m176.91 422.05c-28.53 0-51.75-23.21-51.75-51.75 0-28.53 23.21-51.75 51.75-51.75s51.75 23.21 51.75 51.75-23.21 51.75-51.75 51.75zm0-100.49c-26.88 0-48.75 21.87-48.75 48.75s21.87 48.75 48.75 48.75 48.75-21.87 48.75-48.75-21.87-48.75-48.75-48.75z" fill="#233863"/><path d="m176.91 411.78c-22.87 0-41.47-18.6-41.47-41.47s18.6-41.47 41.47-41.47 41.47 18.6 41.47 41.47c0 22.86-18.6 41.47-41.47 41.47zm0-80.94c-21.76 0-39.47 17.71-39.47 39.47s17.71 39.47 39.47 39.47 39.47-17.71 39.47-39.47c0-21.77-17.71-39.47-39.47-39.47z" fill="#fff"/><path d="m176.45 407.29c-20.39 0-36.98-16.59-36.98-36.98s16.59-36.98 36.98-36.98 36.98 16.59 36.98 36.98-16.59 36.98-36.98 36.98zm0-71.96c-19.29 0-34.98 15.69-34.98 34.98s15.69 34.98 34.98 34.98 34.98-15.69 34.98-34.98-15.69-34.98-34.98-34.98z" fill="#fff"/><path d="m190.31 376.09c0 3.27-1.31 6.43-3.55 8.73-1.51 1.59-3.33 2.7-5.4 3.3v2.39c0 1.14-.43 2.22-1.19 3.01-.77.8-1.82 1.25-2.96 1.25-1.22 0-2.28-.46-3.07-1.25-.8-.8-1.28-1.88-1.28-3.01v-1.93h-3.95c-1.79 0-3.27-.57-4.29-1.51-1-.94-1.54-2.28-1.54-3.84 0-3.1 2.08-4.67 5.83-4.67h9.36c.37 0 .88-.14 1.25-.46.48-.37.71-.85.71-1.42 0-.83-.31-1.37-.94-1.68-.31-.14-.51-.2-.65-.23-.2-.03-.31-.06-.31-.06h-4.47c-3.1-.08-5.97-1.31-8.05-3.33-2.08-2.05-3.3-4.78-3.3-7.88 0-3.21 1.37-6.31 3.64-8.59 1.82-1.82 4.18-3.04 6.71-3.47v-1.59c0-1.17.43-2.16 1.28-3.01.83-.83 1.85-1.25 3.04-1.25 1.11 0 2.16.46 2.96 1.25.82.85 1.22 1.85 1.22 3.01v1.42h1.51c3.73 0 5.92 1.79 5.92 4.89 0 3.41-2.19 5.23-5.92 5.23h-8.73c-1 0-1.65.65-1.65 1.56 0 .94.51 1.71 1.34 1.71h4.29c3.33 0 6.4 1.17 8.65 3.21 2.26 2.08 3.54 4.95 3.54 8.22z" fill="#233863"/><path d="m205.23 371.86c0 2-1.62 3.63-3.63 3.63-2 0-3.63-1.62-3.63-3.63 0-2 1.62-3.63 3.63-3.63 2 0 3.63 1.63 3.63 3.63z" fill="#233863"/><path d="m154.28 371.86c0 2-1.62 3.63-3.63 3.63-2 0-3.63-1.62-3.63-3.63 0-2 1.62-3.63 3.63-3.63s3.63 1.63 3.63 3.63z" fill="#233863"/><path d="m142.79 311.45c-2.19 9.78-11.89 15.94-21.67 13.75s-15.94-11.89-13.75-21.67 11.89-15.94 21.67-13.75c9.79 2.18 15.94 11.89 13.75 21.67z" fill="#233863"/><ellipse cx="123.59" cy="306.15" fill="#233863" rx="18.15" ry="18.15" transform="matrix(.5551 -.8318 .8318 .5551 -199.6667 238.9914)"/><ellipse cx="123.59" cy="306.15" fill="#ffb44f" rx="18.15" ry="18.15" transform="matrix(.5551 -.8318 .8318 .5551 -199.6667 238.9914)"/><path d="m123.59 325.31c-1.38 0-2.78-.15-4.18-.46-4.99-1.12-9.25-4.11-11.99-8.43s-3.63-9.45-2.52-14.44c1.12-4.99 4.11-9.25 8.43-11.99s9.44-3.64 14.44-2.52c4.99 1.12 9.25 4.11 11.99 8.43s3.63 9.45 2.52 14.44c-2 8.9-9.93 14.97-18.69 14.97zm-.03-36.31c-3.22 0-6.37.91-9.15 2.67-3.87 2.45-6.55 6.27-7.55 10.74s-.2 9.06 2.25 12.93 6.27 6.55 10.74 7.55c9.22 2.06 18.41-3.76 20.48-12.99 1-4.47.2-9.06-2.25-12.93s-6.27-6.55-10.74-7.55c-1.26-.28-2.53-.42-3.78-.42z" fill="#233863"/><path d="m123.61 321.15c-1.09 0-2.2-.12-3.29-.37-8.07-1.81-13.16-9.84-11.36-17.91.87-3.9 3.22-7.23 6.6-9.38s7.39-2.85 11.3-1.98c8.07 1.81 13.16 9.84 11.36 17.9-.87 3.9-3.22 7.23-6.6 9.38-2.44 1.56-5.2 2.36-8.01 2.36zm-3.13-1.1c3.71.83 7.52.16 10.73-1.88 3.22-2.04 5.44-5.21 6.27-8.91 1.72-7.66-3.12-15.29-10.79-17.01-3.71-.83-7.52-.16-10.73 1.88-3.22 2.04-5.44 5.2-6.27 8.91-1.71 7.67 3.13 15.3 10.79 17.01z" fill="#fff"/><path d="m123.43 319.49c-.96 0-1.94-.11-2.92-.32-7.19-1.61-11.74-8.77-10.13-15.97.78-3.48 2.87-6.45 5.89-8.37s6.6-2.54 10.08-1.76c7.19 1.61 11.74 8.77 10.13 15.97-1.4 6.21-6.93 10.45-13.05 10.45zm-.02-26c-2.37 0-4.69.67-6.74 1.97-2.85 1.81-4.82 4.61-5.56 7.9-1.52 6.79 2.77 13.55 9.56 15.07 3.29.74 6.66.14 9.51-1.66 2.85-1.81 4.83-4.61 5.56-7.9.74-3.28.14-6.66-1.66-9.51-1.81-2.85-4.61-4.83-7.9-5.56-.92-.2-1.85-.31-2.77-.31z" fill="#fff"/><path d="m127.85 309.25c-.26 1.15-.97 2.16-1.94 2.8-.66.44-1.38.69-2.16.74l-.19.84c-.09.4-.33.75-.66.97s-.74.3-1.14.21c-.43-.1-.77-.34-.98-.68-.22-.34-.3-.76-.21-1.16l.15-.68-1.39-.31c-.63-.14-1.11-.46-1.39-.87s-.36-.92-.24-1.47c.24-1.09 1.1-1.48 2.42-1.18l3.3.74c.13.03.32.02.48-.06.2-.09.32-.24.36-.45.07-.29 0-.5-.2-.67-.1-.07-.17-.11-.21-.13-.07-.03-.11-.04-.11-.04l-1.57-.35c-1.09-.27-2-.93-2.57-1.81-.57-.89-.79-1.94-.54-3.04.25-1.13.98-2.12 1.96-2.74.79-.5 1.71-.74 2.64-.69l.13-.56c.09-.41.32-.73.69-.96.35-.23.75-.3 1.17-.2.39.09.73.33.94.67.22.36.29.75.19 1.16l-.11.5.53.12c1.31.29 1.94 1.1 1.7 2.19-.27 1.2-1.19 1.67-2.5 1.38l-3.08-.69c-.35-.08-.63.1-.71.42-.07.33.05.64.34.71l1.51.34c1.17.26 2.16.92 2.79 1.81.63.88.86 1.99.6 3.14z" fill="#233863"/><path d="m133.45 308.93c-.16.71-.86 1.15-1.56.99-.71-.16-1.15-.86-.99-1.56.16-.71.86-1.15 1.56-.99s1.14.86.99 1.56z" fill="#233863"/><path d="m115.49 304.92c-.16.71-.86 1.15-1.56.99-.71-.16-1.15-.86-.99-1.56.16-.71.86-1.15 1.56-.99.7.15 1.15.85.99 1.56z" fill="#233863"/><ellipse cx="93.9" cy="353.97" fill="#233863" rx="24.44" ry="24.44" transform="matrix(.7797 -.6262 .6262 .7797 -200.9688 136.7977)"/><ellipse cx="91.28" cy="353.35" fill="#233863" rx="24.44" ry="24.44" transform="matrix(.0234 -.9997 .9997 .0234 -264.1072 436.3387)"/><ellipse cx="91.28" cy="353.35" fill="#ffb44f" rx="24.44" ry="24.44" transform="matrix(.0234 -.9997 .9997 .0234 -264.1072 436.3387)"/><path d="m91.29 379.29c-11.31 0-21.74-7.47-24.97-18.87-3.9-13.76 4.13-28.13 17.89-32.03 13.77-3.9 28.13 4.13 32.03 17.89s-4.13 28.13-17.89 32.03c-2.36.66-4.73.98-7.06.98zm.02-48.89c-2.1 0-4.21.29-6.28.88-12.17 3.45-19.27 16.15-15.82 28.32s16.15 19.27 28.32 15.82c5.9-1.67 10.79-5.54 13.78-10.88 2.99-5.35 3.71-11.54 2.04-17.44s-5.54-10.79-10.88-13.78c-3.47-1.94-7.29-2.92-11.16-2.92z" fill="#233863"/><path d="m91.29 373.41c-8.75 0-16.81-5.77-19.31-14.59-3.01-10.64 3.19-21.75 13.83-24.77 5.15-1.46 10.56-.82 15.24 1.8s8.06 6.89 9.52 12.04.82 10.56-1.8 15.24-6.89 8.06-12.04 9.52c-1.8.51-3.64.76-5.44.76zm0-39.38c-1.76 0-3.53.24-5.27.74-10.24 2.9-16.22 13.6-13.32 23.84 2.9 10.25 13.6 16.21 23.84 13.32 4.95-1.4 9.07-4.66 11.59-9.17s3.13-9.72 1.73-14.67c-1.4-4.96-4.66-9.07-9.17-11.59-2.92-1.63-6.14-2.47-9.4-2.47z" fill="#fff"/><path d="m91.05 371.29c-3.01 0-5.99-.77-8.7-2.28-4.17-2.33-7.19-6.14-8.49-10.73s-.73-9.41 1.6-13.58 6.14-7.19 10.73-8.49c4.59-1.3 9.41-.73 13.58 1.6s7.19 6.14 8.49 10.73.73 9.41-1.6 13.58-6.14 7.19-10.73 8.49c-1.61.46-3.25.68-4.88.68zm.02-35.01c-1.56 0-3.13.22-4.68.65-4.39 1.25-8.04 4.13-10.28 8.13-2.23 4-2.78 8.62-1.53 13.01s4.13 8.04 8.13 10.28c4 2.23 8.62 2.78 13.01 1.53s8.05-4.13 10.28-8.13 2.78-8.62 1.53-13.01-4.13-8.04-8.13-10.28c-2.58-1.44-5.44-2.18-8.33-2.18z" fill="#fff"/><path d="m98.32 354.28c.43 1.53.24 3.18-.51 4.56-.5.95-1.2 1.71-2.09 2.26l.32 1.12c.15.53.09 1.09-.16 1.57-.25.47-.69.83-1.22.98-.57.16-1.13.09-1.6-.18-.48-.27-.85-.71-1-1.24l-.26-.91-1.85.53c-.84.24-1.61.17-2.21-.14-.59-.31-1.02-.86-1.23-1.59-.41-1.45.35-2.46 2.11-2.96l4.38-1.24c.17-.05.39-.18.53-.38.18-.24.22-.49.14-.76-.11-.39-.33-.6-.66-.66-.17-.03-.27-.03-.34-.02-.1.01-.15.01-.15.01l-2.09.59c-1.46.37-2.97.18-4.21-.49-1.24-.68-2.18-1.8-2.59-3.25-.43-1.51-.2-3.14.57-4.5.61-1.09 1.56-1.98 2.68-2.52l-.21-.75c-.16-.54-.09-1.07.2-1.58.28-.5.7-.83 1.26-.99.52-.15 1.07-.07 1.55.19.5.29.82.7.97 1.25l.19.67.71-.2c1.75-.49 3.01.05 3.42 1.5.45 1.6-.33 2.74-2.08 3.24l-4.09 1.16c-.47.13-.69.53-.56.95.13.44.47.73.85.62l2.01-.57c1.56-.44 3.15-.3 4.47.36 1.34.66 2.32 1.84 2.75 3.37z" fill="#233863"/><path d="m104.74 350.32c.27.94-.28 1.91-1.22 2.18s-1.91-.28-2.18-1.22.28-1.91 1.22-2.18c.93-.26 1.91.28 2.18 1.22z" fill="#233863"/><ellipse cx="79.2" cy="357.55" fill="#233863" rx="1.76" ry="1.76" transform="matrix(.488 -.8728 .8728 .488 -271.5406 252.1984)"/><path d="m272.59 257.75-104.07-5.19c-4.88-.24-8.65-4.4-8.4-9.28l7.8-156.57c.74-14.78 13.31-26.16 28.09-25.42l69.08 3.44c14.78.74 26.16 13.31 25.42 28.09l-7.76 155.74c-.27 5.34-4.82 9.45-10.16 9.19z" fill="#233863"/><path d="m265.9 257.75-104.07-5.19c-4.88-.24-8.65-4.4-8.4-9.28l7.8-156.57c.74-14.78 13.31-26.16 28.09-25.42l69.08 3.44c14.78.74 26.16 13.31 25.42 28.09l-7.76 155.74c-.27 5.34-4.82 9.45-10.16 9.19z" fill="#fff"/><path d="m266.38 259.26c-.19 0-.37 0-.56-.01l-104.07-5.19c-5.7-.28-10.11-5.15-9.83-10.86l7.8-156.57c.38-7.55 3.67-14.49 9.27-19.56s12.86-7.65 20.39-7.28l69.08 3.44c15.58.78 27.62 14.08 26.84 29.66l-7.76 155.74c-.29 5.97-5.24 10.63-11.16 10.63zm-.41-3.01c4.55.23 8.36-3.26 8.59-7.77l7.76-155.74c.69-13.93-10.07-25.82-24-26.52l-69.08-3.44c-6.75-.34-13.22 1.97-18.23 6.51-5.01 4.53-7.95 10.74-8.29 17.49l-7.8 156.57c-.2 4.05 2.93 7.51 6.98 7.71z" fill="#233863"/><path d="m257.15 64.7v-.03l-98.47-4.91c-11.33-.56-21 8.56-21.59 20.38l-.41 8.13 99.58 4.96.41-8.13c.58-11.43 9.64-20.34 20.48-20.4z" fill="#fff"/><path d="m236.28 94.74c-.02 0-.05 0-.07 0l-99.58-4.96c-.83-.04-1.46-.75-1.42-1.57l.41-8.13c.3-6.11 2.87-11.74 7.23-15.85 4.38-4.13 10.03-6.25 15.93-5.95l98.47 4.91c.4.02.78.2 1.04.5.27.3.4.69.38 1.09-.05.79-.7 1.44-1.49 1.44-10.12.06-18.46 8.4-18.98 18.98l-.41 8.13c-.02.4-.2.77-.49 1.04-.29.23-.65.37-1.02.37zm-98.01-7.89 96.58 4.81.33-6.63c.42-8.5 5.25-15.73 12.11-19.35l-88.68-4.42c-5.08-.25-9.94 1.57-13.72 5.14-3.79 3.58-6.03 8.49-6.3 13.82z" fill="#233863"/><path d="m257.15 64.7v-.03l-98.47-4.91c-11.33-.56-21 8.56-21.59 20.38l-.41 8.13 99.58 4.96.41-8.13c.58-11.43 9.64-20.34 20.48-20.4z" fill="#233863" opacity=".11"/><path d="m183.83 105.16 25.1 1.25" fill="#fff"/><path d="m208.93 107.91c-.03 0-.05 0-.08 0l-25.1-1.25c-.83-.04-1.46-.75-1.42-1.57.04-.83.77-1.46 1.57-1.42l25.1 1.25c.83.04 1.46.75 1.42 1.57-.04.79-.7 1.42-1.49 1.42z" fill="#233863"/><path d="m240.74 108.72 25.1 1.25" fill="#fff"/><path d="m265.84 111.47c-.03 0-.05 0-.08 0l-25.1-1.25c-.83-.04-1.46-.75-1.42-1.57.04-.83.77-1.47 1.57-1.42l25.1 1.25c.83.04 1.46.75 1.42 1.57-.03.8-.69 1.42-1.49 1.42z" fill="#233863"/><path d="m182.35 134.75 49.85 2.18" fill="#fff"/><path d="m232.2 138.43c-.02 0-.04 0-.07 0l-49.85-2.18c-.83-.04-1.47-.74-1.43-1.56.04-.83.7-1.47 1.56-1.43l49.85 2.18c.83.04 1.47.74 1.43 1.56-.02.8-.69 1.43-1.49 1.43z" fill="#233863"/><path d="m180.96 151.05 20.79 1.16" fill="#fff"/><path d="m201.75 153.71c-.03 0-.06 0-.08 0l-20.79-1.16c-.83-.05-1.46-.75-1.41-1.58s.76-1.45 1.58-1.41l20.79 1.16c.83.05 1.46.75 1.41 1.58-.05.8-.71 1.41-1.5 1.41z" fill="#233863"/><path d="m183.09 119.97 35.79 1.78" fill="#fff"/><path d="m218.88 123.25c-.03 0-.05 0-.08 0l-35.79-1.78c-.83-.04-1.46-.75-1.42-1.57.04-.83.75-1.46 1.57-1.42l35.79 1.78c.83.04 1.46.75 1.42 1.57-.03.8-.69 1.42-1.49 1.42z" fill="#233863"/><path d="m227.56 122.18 4.64.23" fill="#fff"/><path d="m232.2 123.91c-.03 0-.05 0-.08 0l-4.65-.23c-.83-.04-1.46-.75-1.42-1.57.04-.83.71-1.47 1.57-1.42l4.65.23c.83.04 1.46.75 1.42 1.57-.03.8-.69 1.42-1.49 1.42z" fill="#233863"/><path d="m266.43 147.84c-.12 2.73-1.32 5.31-3.27 7.15-1.31 1.27-2.87 2.13-4.62 2.56l-.08 1.99c-.04.95-.43 1.83-1.1 2.47s-1.56.98-2.51.94c-1.02-.04-1.88-.46-2.52-1.15s-1-1.61-.96-2.56l.07-1.61-3.3-.14c-1.49-.06-2.71-.59-3.53-1.41-.8-.82-1.2-1.95-1.15-3.26.11-2.58 1.9-3.81 5.03-3.68l7.8.33c.31.01.74-.09 1.06-.33.42-.29.62-.69.64-1.16.03-.69-.21-1.15-.72-1.43-.26-.13-.42-.18-.54-.21-.16-.03-.26-.06-.26-.06l-3.72-.16c-2.58-.18-4.93-1.3-6.59-3.06-1.66-1.78-2.58-4.1-2.47-6.68.11-2.68 1.36-5.21 3.34-7.03 1.58-1.45 3.59-2.39 5.72-2.65l.06-1.33c.04-.97.43-1.79 1.17-2.47.72-.66 1.58-.98 2.58-.93.92.04 1.79.46 2.42 1.15.66.74.95 1.58.91 2.56l-.05 1.19 1.26.05c3.11.13 4.87 1.7 4.76 4.29-.12 2.84-2.01 4.28-5.12 4.15l-7.28-.31c-.83-.04-1.4.49-1.43 1.25-.03.78.37 1.44 1.05 1.47l3.58.15c2.77.12 5.29 1.2 7.09 2.99 1.83 1.76 2.8 4.2 2.68 6.93z" fill="#233863" stroke="#fff" stroke-miterlimit="10" stroke-width="2"/><path d="m138.6 80.22 21.31.87" fill="none" stroke="#233863" stroke-linecap="round" stroke-miterlimit="10" stroke-width="3"/><path d="m69.04 163.47 81.25 109.14 69.67-51.86-82.79-111.21-.72 12.36-11.44-2.71-.67 11.73-10.83-2.57-.65 11.32-10.62-2.52-.65 11.1-10.62-2.52-.58 10.06-11.64-2.76-.7 12.15z" fill="#3aaed5"/><path d="m150.29 274.11c-.07 0-.14 0-.22-.02-.39-.06-.75-.27-.99-.59l-81.25-109.14c-.37-.5-.4-1.17-.07-1.69s.94-.79 1.55-.68l7.33 1.4.6-10.45c.03-.44.25-.85.6-1.12s.81-.36 1.24-.26l9.9 2.35.48-8.27c.03-.44.25-.85.6-1.12.35-.26.81-.36 1.24-.26l8.88 2.11.54-9.32c.03-.44.25-.85.6-1.12s.81-.36 1.24-.26l8.88 2.11.55-9.53c.03-.44.25-.85.6-1.12s.81-.36 1.24-.26l9.08 2.16.58-9.95c.03-.44.25-.85.6-1.12s.81-.36 1.24-.26l9.7 2.3.61-10.58c.04-.63.46-1.17 1.07-1.35.6-.18 1.26.03 1.63.54l82.79 111.21c.5.66.36 1.6-.31 2.1l-69.67 51.86c-.22.23-.54.33-.86.33zm-77.75-108.45 78.06 104.85 67.26-50.07-79.43-106.7-.48 8.25c-.03.44-.25.85-.6 1.12-.36.27-.81.36-1.24.26l-9.7-2.3-.58 9.95c-.03.44-.25.85-.6 1.12-.36.27-.81.36-1.24.26l-9.08-2.16-.55 9.53c-.03.44-.25.85-.6 1.12-.35.26-.81.36-1.24.26l-8.88-2.11-.54 9.32c-.03.44-.25.85-.6 1.12-.36.26-.81.36-1.24.26l-8.88-2.11-.48 8.27c-.03.44-.25.85-.6 1.12s-.81.36-1.24.26l-9.9-2.35-.6 10.37c-.02.43-.23.83-.57 1.1s-.78.37-1.2.29z" fill="#233863"/><path d="m93.9 177.44 21.42-15.95" fill="#fff"/><path d="m93.9 178.94c-.46 0-.91-.21-1.2-.6-.5-.66-.36-1.6.31-2.1l21.42-15.95c.66-.49 1.6-.36 2.1.31.5.66.36 1.6-.31 2.1l-21.42 15.94c-.27.2-.59.3-.9.3z" fill="#fff"/><path d="m100.24 185.96 39.38-29.32" fill="#fff"/><path d="m100.24 187.46c-.46 0-.91-.21-1.2-.6-.5-.66-.36-1.6.31-2.1l39.38-29.31c.66-.49 1.6-.36 2.1.31.5.66.36 1.6-.31 2.1l-39.38 29.31c-.27.19-.59.29-.9.29z" fill="#233863"/><path d="m143.88 153.47 5.27-3.93" fill="#fff"/><path d="m143.88 154.97c-.46 0-.91-.21-1.2-.6-.5-.66-.36-1.6.31-2.1l5.27-3.93c.66-.49 1.6-.36 2.1.31.5.66.36 1.6-.31 2.1l-5.27 3.93c-.28.19-.59.29-.9.29z" fill="#fff"/><path d="m109.36 198.21 14.47-10.77" fill="#fff"/><path d="m109.37 199.71c-.46 0-.91-.21-1.2-.6-.5-.66-.36-1.6.31-2.1l14.47-10.77c.66-.49 1.61-.36 2.1.31.5.66.36 1.6-.31 2.1l-14.47 10.77c-.28.2-.59.29-.9.29z" fill="#233863"/><path d="m130.08 182.79 28.19-20.99" fill="#fff"/><path d="m130.08 184.29c-.46 0-.91-.21-1.2-.6-.5-.66-.36-1.6.31-2.1l28.19-20.99c.66-.49 1.6-.36 2.1.31.5.66.36 1.6-.31 2.1l-28.19 20.99c-.27.19-.59.29-.9.29z" fill="#233863"/><path d="m122.76 216.21 31.75-23.64" fill="#fff"/><path d="m122.76 217.71c-.46 0-.91-.21-1.2-.6-.5-.66-.36-1.6.31-2.1l31.75-23.64c.66-.49 1.6-.36 2.1.31.5.66.36 1.6-.31 2.1l-31.75 23.64c-.27.19-.58.29-.9.29z" fill="#fff"/><path d="m169.85 207.93 14.65-10.91" fill="#fff"/><path d="m169.85 209.43c-.46 0-.91-.21-1.2-.6-.5-.66-.36-1.6.31-2.1l14.64-10.9c.66-.49 1.61-.36 2.1.31.5.66.36 1.6-.31 2.1l-14.64 10.9c-.27.19-.59.29-.9.29z" fill="#233863"/><path d="m178.76 143.06-10.12 81.17 61.79 7.7 10.31-82.7-6.37 4.96-4.7-6.05-6.04 4.71-4.45-5.72-5.83 4.53-4.37-5.61-5.72 4.45-4.36-5.61-5.18 4.03-4.79-6.15-6.26 4.87-3.83-4.92" fill="#ffb44f"/><path d="m230.43 233.43c-.06 0-.12 0-.19-.01l-61.79-7.7c-.82-.1-1.41-.85-1.3-1.67l10.12-81.17c.01-.12.04-.23.08-.33.05-.38.24-.75.57-1.01.65-.51 1.59-.39 2.1.26l2.91 3.74 5.08-3.95c.31-.24.71-.35 1.11-.3.39.05.75.25 1 .57l3.87 4.97 4-3.11c.65-.51 1.59-.39 2.1.26l3.45 4.43 4.54-3.53c.65-.51 1.59-.39 2.1.26l3.45 4.43 4.64-3.61c.65-.51 1.59-.39 2.1.26l3.53 4.54 4.86-3.78c.65-.51 1.59-.39 2.1.26l3.78 4.86 5.18-4.03c.48-.37 1.13-.42 1.66-.12s.82.89.75 1.49l-10.31 82.7c-.05.4-.25.75-.57 1-.26.18-.59.29-.92.29zm-60.11-10.5 58.81 7.33 9.68-77.62-3.51 2.73c-.65.51-1.6.39-2.1-.26l-3.78-4.86-4.86 3.78c-.65.51-1.6.39-2.1-.26l-3.53-4.54-4.64 3.61c-.31.24-.71.36-1.11.3-.39-.05-.75-.25-1-.57l-3.45-4.43-4.54 3.53c-.65.51-1.6.39-2.1-.26l-3.45-4.43-4 3.11c-.31.24-.71.36-1.11.3-.39-.05-.75-.25-1-.57l-3.87-4.97-5.08 3.95c-.65.51-1.6.39-2.1-.26l-1.64-2.11z" fill="#233863"/><path d="m204.07 163c-.04 0-.08 0-.13-.01l-19-2.37c-.55-.07-.94-.57-.87-1.12s.57-.94 1.12-.87l19 2.37c.55.07.94.57.87 1.12-.06.51-.49.88-.99.88z" fill="#fff"/><path d="m184.29 165.97 34.92 4.35" fill="#fff"/><path d="m219.21 171.32c-.04 0-.08 0-.13-.01l-34.92-4.35c-.55-.07-.94-.57-.87-1.12s.56-.94 1.12-.87l34.92 4.35c.55.07.94.57.87 1.12-.06.51-.49.88-.99.88z" fill="#233863"/><path d="m227.66 172.38c-.04 0-.08 0-.13-.01l-4.68-.58c-.55-.07-.94-.57-.87-1.12s.56-.94 1.12-.87l4.68.58c.55.07.94.57.87 1.12-.06.51-.49.88-.99.88z" fill="#fff"/><path d="m183.15 175.08 12.83 1.6" fill="#fff"/><path d="m195.98 177.68c-.04 0-.08 0-.13-.01l-12.83-1.6c-.55-.07-.94-.57-.87-1.12s.57-.94 1.12-.87l12.83 1.6c.55.07.94.57.87 1.12-.06.51-.49.88-.99.88z" fill="#233863"/><path d="m201.52 177.37 25.01 3.12" fill="#fff"/><path d="m226.53 181.49c-.04 0-.08 0-.13-.01l-25-3.12c-.55-.07-.94-.57-.87-1.12s.57-.94 1.12-.87l25 3.12c.55.07.94.57.87 1.12-.06.51-.49.88-.99.88z" fill="#233863"/><path d="m181.48 188.47 28.16 3.51" fill="#fff"/><path d="m209.64 192.98c-.04 0-.08 0-.13-.01l-28.16-3.51c-.55-.07-.94-.57-.87-1.12s.56-.94 1.12-.87l28.16 3.51c.55.07.94.57.87 1.12-.06.51-.49.88-.99.88z" fill="#233863"/><path d="m210.27 205.06 12.99 1.62" fill="#fff"/><path d="m223.26 208.18c-.06 0-.12 0-.19-.01l-12.99-1.62c-.82-.1-1.41-.85-1.3-1.67.1-.82.84-1.41 1.67-1.3l12.99 1.62c.82.1 1.41.85 1.3 1.67-.08.76-.73 1.31-1.48 1.31z" fill="#233863"/><path d="m345.72 293.2-161.33 38.95c-5.08 1.23-10.2-1.9-11.42-6.98l-25.67-106.34c-1.23-5.08 1.9-10.2 6.98-11.42l161.33-38.95c5.08-1.23 10.2 1.9 11.42 6.98l25.67 106.34c1.23 5.08-1.9 10.19-6.98 11.42z" fill="#3d85fd"/><g fill="#233863"><path d="m182.15 333.92c-1.99 0-3.95-.55-5.7-1.61-2.5-1.53-4.25-3.94-4.94-6.78l-25.67-106.34c-1.42-5.88 2.21-11.81 8.09-13.23l161.33-38.96c5.87-1.42 11.81 2.21 13.23 8.09l25.67 106.34c1.42 5.88-2.21 11.81-8.09 13.23l-161.33 38.95c-.86.2-1.73.31-2.59.31zm135.68-164.23c-.62 0-1.24.07-1.87.22l-161.33 38.95c-4.27 1.03-6.9 5.34-5.87 9.61l25.67 106.34c.5 2.07 1.77 3.82 3.59 4.93s3.96 1.45 6.02.95l161.33-38.95c4.27-1.03 6.91-5.34 5.88-9.61l-25.67-106.34c-.89-3.64-4.16-6.1-7.75-6.1z"/><path d="m296.32 171.38-47.41 11.56 11.02 45.2c1.43 5.86-3.58 12.12-11.2 13.98-14.46 3.52-23.97 15.41-21.26 26.54 1.15 4.71-2.88 9.74-9 11.23-17.07 4.16-28.32 18.2-25.11 31.35l4.34 17.8 144.83-35.31c7.16-1.75 11.55-8.96 9.8-16.13l-24.01-98.48c-1.97-8.1-10.14-13.07-18.24-11.09z" opacity=".36"/><path d="m209.29 272.44-21.91 5.34c-.55.13-1.1-.2-1.23-.75l-1.12-4.59c-.13-.55.2-1.1.75-1.23l21.91-5.34c.55-.13 1.1.2 1.23.75l1.12 4.59c.13.55-.2 1.1-.75 1.23z"/><path d="m237.37 265.6-21.91 5.34c-.55.13-1.1-.2-1.23-.75l-1.12-4.59c-.13-.55.2-1.1.75-1.23l21.91-5.34c.55-.13 1.1.2 1.23.75l1.12 4.59c.13.54-.2 1.09-.75 1.23z"/><path d="m264.85 258.9-21.91 5.34c-.55.13-1.1-.2-1.23-.75l-1.12-4.59c-.13-.55.2-1.1.75-1.23l21.91-5.34c.55-.13 1.1.2 1.23.75l1.12 4.59c.13.54-.2 1.09-.75 1.23z"/><path d="m292.33 252.2-21.91 5.34c-.55.13-1.1-.2-1.23-.75l-1.12-4.59c-.13-.55.2-1.1.75-1.23l21.91-5.34c.55-.13 1.1.2 1.23.75l1.12 4.59c.14.54-.2 1.09-.75 1.23z"/></g><path d="m208.57 288.71-18.04 4.4c-.55.13-1.1-.2-1.23-.75l-.55-2.26c-.13-.55.2-1.1.75-1.23l18.04-4.4c.55-.13 1.1.2 1.23.75l.55 2.26c.13.54-.2 1.09-.75 1.23z" fill="#fff"/><path d="m312.94 188.29-18.32 3.02c-.56.09-1.08-.28-1.17-.84l-.38-2.3c-.09-.56.29-1.08.84-1.17l18.32-3.02c.56-.09 1.08.28 1.17.84l.38 2.3c.1.56-.28 1.08-.84 1.17z" fill="#fff"/><path d="m245.91 206.09-72.44 17.66c-.74.18-1.48-.27-1.66-1.01l-.74-3.04c-.18-.74.27-1.48 1.01-1.66l72.44-17.66c.74-.18 1.48.27 1.66 1.01l.74 3.04c.18.74-.28 1.48-1.01 1.66z" fill="#fff"/><path d="m234.13 282.36-18.04 4.4c-.55.13-1.1-.2-1.23-.75l-.55-2.26c-.13-.55.2-1.1.75-1.23l18.04-4.4c.55-.13 1.1.2 1.23.75l.55 2.26c.13.55-.21 1.1-.75 1.23z" fill="#fff"/><path d="m259.05 276.48-18.04 4.4c-.55.13-1.1-.2-1.23-.75l-.55-2.26c-.13-.55.2-1.1.75-1.23l18.04-4.4c.55-.13 1.1.2 1.23.75l.55 2.26c.14.55-.2 1.1-.75 1.23z" fill="#fff"/><path d="m211.15 301.89-18.04 4.4c-.55.13-1.1-.2-1.23-.75l-.55-2.26c-.13-.55.2-1.1.75-1.23l18.04-4.4c.55-.13 1.1.2 1.23.75l.55 2.26c.14.55-.2 1.1-.75 1.23z" fill="#ffb44f"/><path d="m210.99 252.67-26.38 6.37c-1.46.35-2.93-.55-3.28-2l-1.92-7.94-1.76-7.29c-.35-1.46.55-2.93 2-3.28l26.38-6.37c1.46-.35 2.93.55 3.28 2l3.68 15.23c.36 1.46-.54 2.93-2 3.28z" fill="#ffb44f"/><path d="m177.78 249.62 33.25-8.37" fill="#ffb44f"/><path d="m177.78 251.13c-.67 0-1.28-.45-1.45-1.13-.2-.8.28-1.62 1.09-1.82l33.25-8.38c.8-.2 1.62.28 1.82 1.09.2.8-.28 1.62-1.09 1.82l-33.25 8.38c-.13.02-.25.04-.37.04z" fill="#3d85fd"/><path d="m200.05 244.84c.27 2.79-1.77 5.26-4.56 5.53s-5.26-1.77-5.53-4.56 1.77-5.26 4.56-5.53c2.78-.27 5.26 1.77 5.53 4.56z" fill="#ffb44f"/><path d="m195 251.89c-3.34 0-6.21-2.55-6.53-5.94-.17-1.75.35-3.45 1.47-4.81 1.12-1.35 2.69-2.19 4.44-2.36 3.6-.35 6.82 2.3 7.17 5.91.35 3.6-2.3 6.82-5.91 7.17-.22.02-.43.03-.64.03zm.01-10.14c-.12 0-.23.01-.35.02-.95.09-1.8.55-2.41 1.28-.61.74-.89 1.66-.8 2.61.19 1.96 1.93 3.4 3.89 3.21.95-.09 1.8-.55 2.41-1.28.61-.74.89-1.66.8-2.61s-.55-1.8-1.28-2.41c-.64-.53-1.44-.82-2.26-.82z" fill="#3d85fd"/><path d="m311.96 275.8c-.78-2.76-.3-5.57 1.1-7.83-2.12-1.07-4.63-1.38-7.09-.68-5.22 1.48-8.25 6.92-6.77 12.14s6.92 8.25 12.14 6.77c2.46-.7 4.43-2.28 5.67-4.3-2.37-1.2-4.26-3.34-5.05-6.1z" fill="#fff"/><path d="m322.09 262.75c-2.46.7-4.43 2.28-5.67 4.3-1.39 2.26-1.88 5.08-1.1 7.83.78 2.76 2.67 4.9 5.05 6.09 2.12 1.07 4.63 1.38 7.09.68 5.22-1.48 8.25-6.92 6.77-12.14-1.49-5.2-6.92-8.24-12.14-6.76z" fill="#ffb44f"/><path d="m328.76 88.99c.12-.24.3-.45.55-.6l16.29-9.63c.67-.4 1.54-.17 1.94.5.4.68.17 1.54-.5 1.94l-16.29 9.63c-.67.4-1.54.17-1.94-.5-.25-.42-.25-.92-.05-1.34z" fill="#233863"/><path d="m317.69 86.39c-.02-.19-.01-.39.06-.58l7.84-25.17c.23-.75 1.03-1.16 1.77-.93.75.23 1.16 1.03.93 1.77l-7.84 25.17c-.23.75-1.03 1.16-1.77.93-.56-.18-.93-.65-.99-1.19z" fill="#233863"/><path d="m290.53 62.8c-.31-.68-.04-1.49.62-1.85.69-.37 1.55-.1 1.91.59l13.41 25.38c.35.72.1 1.55-.59 1.91-.69.37-1.55.1-1.91-.59l-13.41-25.38c-.01-.02-.02-.04-.03-.06z" fill="#233863"/><path d="m250.41 397.92c-.12.2-.3.36-.53.46l-14.88 6.84c-.62.28-1.34.01-1.63-.6-.28-.62-.01-1.34.6-1.63l14.88-6.84c.62-.28 1.34-.01 1.63.6.18.4.14.83-.07 1.17z" fill="#233863"/><path d="m259.71 401.16c0 .17-.03.33-.1.5l-9 20.96c-.27.62-.99.91-1.61.64s-.91-.99-.64-1.61l9-20.96c.27-.62.99-.91 1.61-.64.45.19.73.64.74 1.11z" fill="#233863"/><path d="m280.98 423.89c.21.61-.09 1.29-.7 1.53-.63.25-1.34-.05-1.6-.68l-9.28-23.04c-.24-.65.05-1.34.68-1.6.63-.25 1.34.05 1.6.68l9.28 23.04c0 .02.01.05.02.07z" fill="#233863"/><path d="m94.74 251.74-.68-17.21 29.64 27.56-27.39 29.8-.68-17.21s-25.58-5.14-41.73 24.62c0 0-5.19-22.02 13.51-38.86 0 0 8.43-8.53 27.33-8.7zm0 0" fill="#ffb44f"/><path d="m53.9 300.8c-.07 0-.13 0-.2-.01-.62-.08-1.12-.54-1.26-1.14-.05-.23-5.17-23.09 13.96-40.31.29-.3 8.56-8.45 26.77-9.05l-.62-15.69c-.02-.61.32-1.17.87-1.42s1.2-.15 1.65.26l29.64 27.56c.6.56.64 1.51.08 2.11l-27.39 29.8c-.41.45-1.05.6-1.62.39s-.96-.74-.98-1.35l-.63-15.97c-5.08-.58-25.3-1.14-38.96 24.03-.25.49-.76.79-1.31.79zm41.8-62.69.53 13.58c.02.41-.13.8-.41 1.09s-.67.46-1.07.46c-18.07.16-26.19 8.17-26.27 8.25-13.04 11.74-14.05 26.21-13.63 33.23 16.55-26.09 40.83-21.57 41.08-21.52.68.14 1.18.72 1.2 1.41l.53 13.58 23.92-26.02z" fill="#233863"/><path d="m397.81 310.7-.48 17.22-27.73-29.48 29.32-27.9-.48 17.22s25.18 6.84 43.29-21.77c0 0 3.7 22.32-16.08 37.87.01-.01-8.97 7.94-27.84 6.84zm0 0" fill="#ffb44f"/><path d="m397.33 329.42c-.41 0-.8-.16-1.09-.47l-27.73-29.48c-.57-.6-.54-1.55.06-2.11l29.32-27.9c.44-.42 1.09-.53 1.64-.28s.91.8.89 1.41l-.44 15.97c5.02.92 25.16 2.83 40.49-21.37.33-.52.95-.79 1.57-.67.61.12 1.08.61 1.18 1.22.04.23 3.61 23.38-16.63 39.29-.31.28-9.1 7.86-27.32 7.24l-.44 15.69c-.02.61-.4 1.14-.97 1.36-.17.07-.35.1-.53.1zm-25.61-30.92 24.22 25.75.38-13.58c.01-.41.19-.79.48-1.06.3-.27.7-.42 1.1-.39 17.94 1.03 26.68-6.4 26.77-6.48 13.83-10.87 15.79-25.23 15.83-32.25-18.26 24.93-42.19 18.8-42.44 18.73-.67-.18-1.13-.8-1.11-1.49l.38-13.58z" fill="#233863"/></svg>